<svg xmlns="http://www.w3.org/2000/svg" viewBox="0 0 64 64" width="64px" height="64px"><linearGradient id="GwTPfE355baS~BJODzIrna" x1="30" x2="30" y1="1" y2="57" gradientUnits="userSpaceOnUse" spreadMethod="reflect"><stop offset="0" stop-color="#1a6dff"/><stop offset="1" stop-color="#c822ff"/></linearGradient><path fill="url(#GwTPfE355baS~BJODzIrna)" d="M57.47,48.33c-2.24-1.47-3.88-4.22-5.62-7.14c-3.17-5.33-6.75-11.29-15.19-12.25l-0.69-0.09 v-0.22c0.06-0.03,0.13-0.05,0.19-0.07c0.73-0.25,2.1-0.71,2.45-3.21l0.32-2.29l-1.86,0.95c-0.1-0.29-0.18-0.57-0.26-0.83 c-0.1-0.3-0.19-0.59-0.29-0.87c0.48,0.18,0.79,0.33,0.8,0.33c0.46,0.22,1,0.12,1.35-0.25c0.36-0.37,0.44-0.93,0.21-1.39 c0-0.02-0.6-1.25-0.89-3.26C43.7,16.77,54.76,12.66,56.83,1c-1.84,3.11-5.14,11.09-18.85,15.59c-0.02-0.35-0.04-0.71-0.04-1.1 c0-0.66-0.53-1.21-1.19-1.21c-0.72,0-1.25-0.3-1.88-1.01c-0.34-0.38-0.68-0.77-1.12-1.07c-0.29-0.2-0.66-0.25-1-0.15 c-0.33,0.1-0.61,0.35-0.75,0.68c-1.04,2.44-2.61,3.74-3.23,4.24c-0.91,0.74-1.81,1.4-2.61,1.98c-0.86,0.64-2.17,1.42-2.74,1.91 c-0.41,0.36-0.53,0.97-0.28,1.47c0.21,0.41,0.62,0.66,1.06,0.66c0.09,0,0.18-0.01,0.28-0.04c0.7-0.17,1.89-0.55,2.46-0.67 c0.07,0.83,0.1,1.81-0.6,2.7l-1,1.27l1.49,0.61c0.14,0.06,0.29,0.11,0.44,0.16c0,0.01,0,0.01,0,0.02c0,1.7,1.96,2.03,2.73,2.17 c1.03,0.2,1.03,0.26,1.03,0.66v1.11c-0.03,0.43-0.07,0.86-0.13,1.29c-0.39,0.84-1.43,1.89-2.26,2.83c-1.14-1.87-3.26-5.32-3.5-5.67 c0.42-0.26,0.66-0.77,0.54-1.28c-0.1-0.44-0.43-0.75-0.83-0.87c-0.37-0.29-0.96-0.9-1.28-0.9c-0.28,0-1.34,0.3-1.78,0.4 c-0.84,0.21-0.55,0.73-0.29,1.1l-1.53,0.36v-0.29c-1.07-2.42-1.66-1.09-2.61-0.97c-1.31,0.25-2.62,0.49-1.9,1.94l0.16,0.34 l-13.7,3.19c-0.63,0.15-1.04,0.8-0.89,1.45c0.15,0.65,0.79,1.06,1.42,0.91l14.26-3.33c0.4,0.46,1.31,0.87,2.31,2.39 c0.24,0.49,4.75,7.01,5.94,7.01c1.61,0,3.68-0.68,5.04-1.55v7.6c0,0.05,0.01,0.11,0.01,0.16l1.21,8.87C31.31,56.55,31.81,57,32.4,57 c7.91,0,10.5-1.65,10.62-1.7c0.32-0.13,0.57-0.4,0.68-0.73c0.11-0.33,0.08-0.69-0.09-0.99l-4.52-8.05c0.29-1.39,1.11-5.57,1.11-9.48 c0-0.44-0.03-0.84-0.09-1.21c0.95,2,1.46,4.77,2,8.14c0.75,4.66,1.52,9.47,4.27,13.14L47.04,57l0.92-0.59 c0.4-0.26,1.08-0.68,1.91-1.19c2.08-1.29,5.22-3.24,7.62-4.87L59,49.33L57.47,48.33z M25.2,37.14c-2.41-2.23-5.1-4.96-5.25-6.42 l3.06-0.71c0.41,0.84,2.25,5.03,3.06,6.97C25.78,37.07,25.49,37.14,25.2,37.14z M29.74,18.86c0.78-0.58,2.54-2.18,3.64-4.25 c0.52,0.53,1.57,1.2,2.52,1.48c0.07,1.14,0.25,2.47,0.46,3.29c-0.9-0.24-2.4-0.37-3.41-0.37c-1.15,0-2.45,0.14-3.8,0.29 C29.34,19.16,29.54,19.02,29.74,18.86z M41.3,53.89C39.91,54.19,37,55,33,55l-1-8.16l-0.01-9.41c0.21-0.77,0.92-3.94,1.03-6.73 v-0.06c0.01-0.2,0.02-0.39,0.02-0.59c-0.09-1.24-0.46-1.92-0.77-2.26c-0.69-0.69-1.67-0.89-2.21-0.99c-0.02,0-0.08-0.01-0.08-0.01 c-0.53-0.06-1.2-0.52-0.96-1.76c-0.01-0.01,0-0.04,0.01-0.06c0.13-0.72,0.24-2.63,0.26-3.01v-0.11c0.09-0.02,0.2-0.05,0.32-0.08 c1.03-0.15,1.82-0.2,2.61-0.22c1.57,0.04,1.69,0.36,2.32,2.37c0.21,0.65,0.44,1.4,0.78,2.26l0.04,0.1 c-0.48,0.17-1.31,0.49-1.63,1.54c-0.02,0.22,0.08,0.77,0.23,1.31c0.07,0.32,0.16,0.59,0.26,0.83c0.04,0.1,0.08,0.19,0.12,0.26h0.01 c0.2,0.36,0.46,0.66,0.82,1.04c0.01,0,0.01,0,0.02,0.01c0.05,0.06,0.1,0.13,0.15,0.2c0.01,0,0.01,0,0.02,0.01 c0.22,0.25,0.45,0.48,0.68,0.71c0.92,0.9,1.96,1.77,1.96,3.87c0,4.38-0.94,9.35-0.95,9.4c-0.07,0.3-0.03,0.61,0.12,0.88L41.3,53.89z M48.92,53.48c-0.36,0.22-0.95,0.69-1.24,0.87c-2.18-3.49-2.92-7.47-3.56-11.44c-0.55-3.39-0.83-7.16-2.24-9.77 c4,1.89,6.18,5.47,8.29,9.02c1.54,2.57,3.28,5.36,5.24,7.15C53.31,50.68,50.59,52.44,48.92,53.48z"/><linearGradient id="GwTPfE355baS~BJODzIrnb" x1="32.755" x2="32.755" y1="14.61" y2="19.38" gradientUnits="userSpaceOnUse" spreadMethod="reflect"><stop offset="0" stop-color="#6dc7ff"/><stop offset="1" stop-color="#e6abff"/></linearGradient><path fill="url(#GwTPfE355baS~BJODzIrnb)" d="M36.36,19.38c-0.9-0.24-2.4-0.37-3.41-0.37c-1.15,0-2.45,0.14-3.8,0.29 c0.19-0.14,0.39-0.28,0.59-0.44c0.78-0.58,2.54-2.18,3.64-4.25c0.52,0.53,1.57,1.2,2.52,1.48C35.97,17.23,36.15,18.56,36.36,19.38z"/></svg>